<svg xmlns="http://www.w3.org/2000/svg" viewBox="0 0 64 64" fill="none">
  <circle cx="32" cy="32" r="26" fill="#e5262d"/>
  <path d="M36 32 L37.02 32.53 L37.97 33.27 L38.8 34.22 L39.49 35.34 L40 36.64 L40.32 38.07 L40.42 39.61 L40.28 41.23 L39.88 42.9 L39.21 44.58 L38.28 46.23 L37.08 47.8 L35.61 49.28 L33.88 50.61 L31.92 51.75 L29.73 52.68 L27.36 53.35 L24.81 53.74 L22.14 53.83 L19.38 53.58 M34 35.46 L34.05 36.61 L33.88 37.8 L33.48 39 L32.85 40.16 L31.99 41.25 L30.91 42.24 L29.62 43.1 L28.14 43.78 L26.5 44.27 L24.71 44.54 L22.82 44.55 L20.85 44.3 L18.84 43.76 L16.83 42.93 L14.85 41.8 L12.96 40.37 L11.19 38.65 L9.58 36.65 L8.17 34.38 L7 31.86 M30 35.46 L29.03 36.08 L27.92 36.53 L26.68 36.78 L25.36 36.81 L23.98 36.61 L22.58 36.17 L21.2 35.49 L19.87 34.55 L18.62 33.37 L17.5 31.96 L16.54 30.33 L15.77 28.49 L15.23 26.48 L14.95 24.33 L14.94 22.05 L15.23 19.7 L15.83 17.3 L16.76 14.9 L18.03 12.55 L19.62 10.28 M28 32 L26.98 31.47 L26.03 30.73 L25.2 29.78 L24.51 28.66 L24 27.36 L23.68 25.93 L23.58 24.39 L23.72 22.77 L24.12 21.1 L24.79 19.42 L25.72 17.77 L26.92 16.2 L28.39 14.72 L30.12 13.39 L32.08 12.25 L34.27 11.32 L36.64 10.65 L39.19 10.26 L41.86 10.17 L44.62 10.42 M30 28.54 L29.95 27.39 L30.12 26.2 L30.52 25 L31.15 23.84 L32.01 22.75 L33.09 21.76 L34.38 20.9 L35.86 20.22 L37.5 19.73 L39.29 19.46 L41.18 19.45 L43.15 19.7 L45.16 20.24 L47.17 21.07 L49.15 22.2 L51.04 23.63 L52.81 25.35 L54.42 27.35 L55.83 29.62 L57 32.14 M34 28.54 L34.97 27.92 L36.08 27.47 L37.32 27.22 L38.64 27.19 L40.02 27.39 L41.42 27.83 L42.8 28.51 L44.13 29.45 L45.38 30.63 L46.5 32.04 L47.46 33.67 L48.23 35.51 L48.77 37.52 L49.05 39.67 L49.06 41.95 L48.77 44.3 L48.17 46.7 L47.24 49.1 L45.97 51.45 L44.38 53.72" stroke="#121218" stroke-width="3.4" stroke-linecap="round" stroke-linejoin="round"/>
</svg>
